<svg width="24" height="24" viewBox="0 0 24 24" fill="none" xmlns="http://www.w3.org/2000/svg">
<path fill-rule="evenodd" clip-rule="evenodd" d="M12 4.56205L8.3017 9H15.6983L12 4.56205ZM6.23177 8.35982C6.07586 8.54691 5.99984 8.77412 5.99996 9H3.28077C2.6302 9 2.15284 9.61139 2.31062 10.2425L4.43189 18.7276C4.76577 20.0631 5.96572 21 7.34232 21H16.6577C18.0343 21 19.2342 20.0631 19.5681 18.7276L21.6894 10.2425C21.8471 9.61139 21.3698 9 20.7192 9H18C18.0001 8.77412 17.9241 8.54691 17.7682 8.35982L12.7682 2.35982C12.3684 1.88006 11.6316 1.88006 11.2318 2.35982L6.23177 8.35982ZM12 12C11.4477 12 11 12.4477 11 13V17C11 17.5523 11.4477 18 12 18C12.5523 18 13 17.5523 13 17V13C13 12.4477 12.5523 12 12 12ZM6.25761 13.361C6.11467 12.8276 6.43125 12.2792 6.96471 12.1363C7.49818 11.9934 8.04652 12.3099 8.18946 12.8434L9.22473 16.7071C9.36768 17.2406 9.05109 17.7889 8.51763 17.9319C7.98416 18.0748 7.43583 17.7582 7.29288 17.2247L6.25761 13.361ZM17.0353 12.1363C16.5018 11.9934 15.9535 12.3099 15.8105 12.8434L14.7752 16.7071C14.6323 17.2406 14.9489 17.7889 15.4824 17.9319C16.0158 18.0748 16.5642 17.7582 16.7071 17.2247L17.7424 13.361C17.8853 12.8276 17.5687 12.2792 17.0353 12.1363Z" fill="#8E99AF"/>
</svg>
